<svg width="17" height="19" viewBox="0 0 17 19" fill="none" xmlns="http://www.w3.org/2000/svg">
<path d="M3.64258 18.5C3.09258 18.5 2.62191 18.3043 2.23058 17.913C1.83858 17.521 1.64258 17.05 1.64258 16.5V3.5C1.35924 3.5 1.12158 3.40433 0.929578 3.213C0.738245 3.021 0.642578 2.78333 0.642578 2.5C0.642578 2.21667 0.738245 1.979 0.929578 1.787C1.12158 1.59567 1.35924 1.5 1.64258 1.5H5.64258C5.64258 1.21667 5.73858 0.979 5.93058 0.787C6.12191 0.595667 6.35924 0.5 6.64258 0.5H10.6426C10.9259 0.5 11.1636 0.595667 11.3556 0.787C11.5469 0.979 11.6426 1.21667 11.6426 1.5H15.6426C15.9259 1.5 16.1632 1.59567 16.3546 1.787C16.5466 1.979 16.6426 2.21667 16.6426 2.5C16.6426 2.78333 16.5466 3.021 16.3546 3.213C16.1632 3.40433 15.9259 3.5 15.6426 3.5V16.5C15.6426 17.05 15.4469 17.521 15.0556 17.913C14.6636 18.3043 14.1926 18.5 13.6426 18.5H3.64258ZM3.64258 3.5V16.5H13.6426V3.5H3.64258ZM5.64258 13.5C5.64258 13.7833 5.73858 14.0207 5.93058 14.212C6.12191 14.404 6.35924 14.5 6.64258 14.5C6.92591 14.5 7.16358 14.404 7.35558 14.212C7.54691 14.0207 7.64258 13.7833 7.64258 13.5V6.5C7.64258 6.21667 7.54691 5.979 7.35558 5.787C7.16358 5.59567 6.92591 5.5 6.64258 5.5C6.35924 5.5 6.12191 5.59567 5.93058 5.787C5.73858 5.979 5.64258 6.21667 5.64258 6.5V13.5ZM9.64258 13.5C9.64258 13.7833 9.73858 14.0207 9.93058 14.212C10.1219 14.404 10.3592 14.5 10.6426 14.5C10.9259 14.5 11.1636 14.404 11.3556 14.212C11.5469 14.0207 11.6426 13.7833 11.6426 13.5V6.5C11.6426 6.21667 11.5469 5.979 11.3556 5.787C11.1636 5.59567 10.9259 5.5 10.6426 5.5C10.3592 5.5 10.1219 5.59567 9.93058 5.787C9.73858 5.979 9.64258 6.21667 9.64258 6.5V13.5ZM3.64258 3.5V16.5V3.5Z" fill="#FF0000"/>
</svg>
