<svg width="22" height="22" viewBox="0 0 22 22" fill="none" xmlns="http://www.w3.org/2000/svg">
<path d="M2.45052 19.1983H4.08385L14.1464 9.13582L12.513 7.50249L2.45052 17.565V19.1983ZM19.1339 7.44416L14.1755 2.54416L15.8089 0.910824C16.2561 0.463601 16.8056 0.23999 17.4574 0.23999C18.1084 0.23999 18.6575 0.463601 19.1047 0.910824L20.738 2.54416C21.1852 2.99138 21.4186 3.53116 21.438 4.16349C21.4575 4.79505 21.2436 5.33443 20.7964 5.78166L19.1339 7.44416ZM1.28385 21.5317C0.953299 21.5317 0.67641 21.4197 0.453188 21.1957C0.229188 20.9724 0.117188 20.6955 0.117188 20.365V17.0692C0.117188 16.9136 0.146354 16.7631 0.204688 16.6177C0.263021 16.4714 0.350521 16.34 0.467187 16.2233L12.4839 4.20666L17.4422 9.16499L5.42552 21.1817C5.30885 21.2983 5.1778 21.3858 5.03235 21.4442C4.88613 21.5025 4.73524 21.5317 4.57969 21.5317H1.28385ZM13.3297 8.31916L12.513 7.50249L14.1464 9.13582L13.3297 8.31916Z" fill="#183B78"/>
</svg>
