<svg width="29" height="30" viewBox="0 0 29 30" fill="none" xmlns="http://www.w3.org/2000/svg">
<path fill-rule="evenodd" clip-rule="evenodd" d="M0.329444 1.63386C0.538477 1.13327 0.989987 0.812988 1.48665 0.812988H27.0005C27.4972 0.812988 27.9487 1.13327 28.1577 1.63386C28.3667 2.13445 28.2953 2.72433 27.9746 3.1457L18.0707 16.1584V27.7443C18.0707 28.2355 17.8417 28.6918 17.4656 28.95C17.0895 29.2083 16.6199 29.2318 16.2245 29.0121L11.1217 26.1772C10.6895 25.9371 10.4165 25.4463 10.4165 24.9094V16.1584L0.512567 3.1457C0.191861 2.72433 0.120411 2.13445 0.329444 1.63386ZM4.23615 3.64786L12.6663 14.7241C12.861 14.98 12.9679 15.3043 12.9679 15.6394V24.0334L15.5193 25.4508V15.6394C15.5193 15.3043 15.6261 14.98 15.8209 14.7241L24.251 3.64786H4.23615Z" fill="#183B78"/>
</svg>
