<svg width="26" height="25" viewBox="0 0 26 25" fill="none" xmlns="http://www.w3.org/2000/svg">
<path d="M16.8934 6.11111C18.3048 6.11111 19.4489 7.25527 19.4489 8.66667M24.5601 8.66667C24.5601 12.9008 21.1276 16.3333 16.8934 16.3333C16.1188 16.3333 15.3711 16.2185 14.6663 16.0049L11.7823 18.8889H9.22673V21.4444H6.67117V24H2.83784C2.13214 24 1.56006 23.4279 1.56006 22.7222V19.4182C1.56006 19.0793 1.69468 18.7543 1.93431 18.5146L9.5552 10.8937C9.34159 10.1889 9.22673 9.44122 9.22673 8.66667C9.22673 4.43248 12.6592 1 16.8934 1C21.1276 1 24.5601 4.43248 24.5601 8.66667Z" stroke="#183B78" stroke-width="2" stroke-linecap="round" stroke-linejoin="round"/>
</svg>
