<svg width="28" height="28" viewBox="0 0 28 28" fill="none" xmlns="http://www.w3.org/2000/svg">
<mask id="mask0_3180_17447" style="mask-type:alpha" maskUnits="userSpaceOnUse" x="0" y="0" width="28" height="28">
<rect x="0.917969" y="0.812744" width="27" height="27" rx="5" fill="#FF0000"/>
</mask>
<g mask="url(#mask0_3180_17447)">
<path d="M15.5391 24.4377C14.1516 24.4377 12.8531 24.1799 11.6438 23.6643C10.7957 23.3027 10.0191 22.8467 9.31401 22.2961C8.81623 21.9075 8.81604 21.1764 9.2626 20.7298C9.70176 20.2907 10.408 20.2938 10.909 20.6608C11.4056 21.0246 11.9458 21.332 12.5297 21.5831C13.4672 21.9862 14.4703 22.1877 15.5391 22.1877C17.7141 22.1877 19.5703 21.419 21.1078 19.8815C22.6453 18.344 23.4141 16.4877 23.4141 14.3127C23.4141 12.1377 22.6453 10.2815 21.1078 8.74399C19.5703 7.20649 17.7141 6.43774 15.5391 6.43774C13.3641 6.43774 11.5078 7.20649 9.97031 8.74399C8.43281 10.2815 7.66406 12.1377 7.66406 14.3127C7.66406 14.3854 7.7519 14.4218 7.80327 14.3704L8.92966 13.244C9.36572 12.808 10.0718 12.8048 10.5117 13.237C10.9571 13.6747 10.9603 14.3915 10.5187 14.8331L6.97024 18.3816C6.73211 18.6197 6.34602 18.6197 6.10789 18.3816L2.5567 14.8304C2.11664 14.3903 2.1198 13.6759 2.56374 13.2397C3.00428 12.8069 3.71206 12.8124 4.14578 13.2521L5.25605 14.3776C5.31401 14.4363 5.41406 14.3953 5.41406 14.3127C5.41406 12.9065 5.68125 11.5893 6.21563 10.3612C6.75 9.13306 7.47188 8.06431 8.38125 7.15493C9.29063 6.24556 10.3594 5.52368 11.5875 4.98931C12.8156 4.45493 14.1328 4.18774 15.5391 4.18774C16.9453 4.18774 18.2625 4.45493 19.4906 4.98931C20.7188 5.52368 21.7875 6.24556 22.6969 7.15493C23.6063 8.06431 24.3281 9.13306 24.8625 10.3612C25.3969 11.5893 25.6641 12.9065 25.6641 14.3127C25.6641 17.1252 24.6797 19.5159 22.7109 21.4846C20.7422 23.4534 18.3516 24.4377 15.5391 24.4377ZM13.2891 18.8127C12.9703 18.8127 12.7031 18.7049 12.4875 18.4893C12.2719 18.2737 12.1641 18.0065 12.1641 17.6877V14.3127C12.1641 13.994 12.2719 13.7268 12.4875 13.5112C12.7031 13.2956 12.9703 13.1877 13.2891 13.1877V12.0627C13.2891 11.444 13.5094 10.9143 13.95 10.4737C14.3906 10.0331 14.9203 9.81274 15.5391 9.81274C16.1578 9.81274 16.6875 10.0331 17.1281 10.4737C17.5688 10.9143 17.7891 11.444 17.7891 12.0627V13.1877C18.1078 13.1877 18.375 13.2956 18.5906 13.5112C18.8063 13.7268 18.9141 13.994 18.9141 14.3127V17.6877C18.9141 18.0065 18.8063 18.2737 18.5906 18.4893C18.375 18.7049 18.1078 18.8127 17.7891 18.8127H13.2891ZM14.4141 13.1877H16.6641V12.0627C16.6641 11.744 16.5562 11.4768 16.3406 11.2612C16.125 11.0456 15.8578 10.9377 15.5391 10.9377C15.2203 10.9377 14.9531 11.0456 14.7375 11.2612C14.5219 11.4768 14.4141 11.744 14.4141 12.0627V13.1877Z" fill="#FF0000"/>
</g>
</svg>
