<svg width="17" height="18" viewBox="0 0 17 18" fill="none" xmlns="http://www.w3.org/2000/svg">
<path d="M3.64258 18C3.09258 18 2.62191 17.8043 2.23058 17.413C1.83858 17.021 1.64258 16.55 1.64258 16V3C1.35924 3 1.12158 2.90433 0.929578 2.713C0.738245 2.521 0.642578 2.28333 0.642578 2C0.642578 1.71667 0.738245 1.479 0.929578 1.287C1.12158 1.09567 1.35924 1 1.64258 1H5.64258C5.64258 0.716667 5.73858 0.479 5.93058 0.287C6.12191 0.0956666 6.35924 0 6.64258 0H10.6426C10.9259 0 11.1636 0.0956666 11.3556 0.287C11.5469 0.479 11.6426 0.716667 11.6426 1H15.6426C15.9259 1 16.1632 1.09567 16.3546 1.287C16.5466 1.479 16.6426 1.71667 16.6426 2C16.6426 2.28333 16.5466 2.521 16.3546 2.713C16.1632 2.90433 15.9259 3 15.6426 3V16C15.6426 16.55 15.4469 17.021 15.0556 17.413C14.6636 17.8043 14.1926 18 13.6426 18H3.64258ZM3.64258 3V16H13.6426V3H3.64258ZM5.64258 13C5.64258 13.2833 5.73858 13.5207 5.93058 13.712C6.12191 13.904 6.35924 14 6.64258 14C6.92591 14 7.16358 13.904 7.35558 13.712C7.54691 13.5207 7.64258 13.2833 7.64258 13V6C7.64258 5.71667 7.54691 5.479 7.35558 5.287C7.16358 5.09567 6.92591 5 6.64258 5C6.35924 5 6.12191 5.09567 5.93058 5.287C5.73858 5.479 5.64258 5.71667 5.64258 6V13ZM9.64258 13C9.64258 13.2833 9.73858 13.5207 9.93058 13.712C10.1219 13.904 10.3592 14 10.6426 14C10.9259 14 11.1636 13.904 11.3556 13.712C11.5469 13.5207 11.6426 13.2833 11.6426 13V6C11.6426 5.71667 11.5469 5.479 11.3556 5.287C11.1636 5.09567 10.9259 5 10.6426 5C10.3592 5 10.1219 5.09567 9.93058 5.287C9.73858 5.479 9.64258 5.71667 9.64258 6V13ZM3.64258 3V16V3Z" fill="#FF0000"/>
</svg>
